<?xml version="1.0" encoding="UTF-8"?>
<svg xmlns="http://www.w3.org/2000/svg" viewBox="0 0 640 512">
  <path fill="#00f3ff" d="M128 32h384v224h64V32C576 14.3 561.7 0 544 0H96C78.3 0 64 14.3 64 32v224h64V32zM624 288H16c-8.8 0-16 7.2-16 16v32c0 8.8 7.2 16 16 16h48v96c0 35.3 28.7 64 64 64h384c35.3 0 64-28.7 64-64v-96h48c8.8 0 16-7.2 16-16v-32c0-8.8-7.2-16-16-16zM432 432c0 8.8-7.2 16-16 16H224c-8.8 0-16-7.2-16-16v-96h224v96zm-64-208c0 8.8-7.2 16-16 16h-48v48c0 8.8-7.2 16-16 16h-32c-8.8 0-16-7.2-16-16v-48h-48c-8.8 0-16-7.2-16-16v-32c0-8.8 7.2-16 16-16h48v-48c0-8.8 7.2-16 16-16h32c8.8 0 16 7.2 16 16v48h48c8.8 0 16 7.2 16 16v32z"/>
</svg>